<?xml version="1.0" encoding="utf-8"?><!-- Generator: Adobe Illustrator 21.0.2, SVG Export Plug-In . SVG Version: 6.00 Build 0)  -->
<svg style="enable-background:new 0 0 688 196;" id="Layer_1" version="1.1"  viewBox="0 0 688 196" x="0px"
	 xmlns="http://www.w3.org/2000/svg" y="0px" xml:space="preserve">
<style type="text/css">
	.st0{fill:#454545;}
	.st1{fill:#D1D3D4;}
	.st2{fill:#00D1B2;}
	.st3{fill:#ABAFB0;}
	.st4{fill:#393939;}
	.st5{fill:#008F7B;}
</style>
<g>
	<path class="st0" d="M199.6,137.2v-14.4h4.6V96.5h-4.6V82.2h25.5v40.6h5.3v14.4H199.6z M214.6,54.9c7.6,0,12.1,6.2,12.1,11.2
		c0,6.1-4.3,11.1-12.1,11.1c-6.9,0-11.9-5.8-11.9-11.1C202.7,61.1,206.9,54.9,214.6,54.9z"/>
	<path class="st0" d="M312.3,79.7c-0.9,5-2.4,12.2-3.2,14.7l-11.6,42.8h-23l-12.3-43.9c-0.5-1.9-2-8.1-2.3-13.6h-0.4V123h6.3v14.2
		h-29.8V123h5.9V74.5H236V60.3h41.7l11.1,41.1l10.6-41.1h41.9v14.2h-6.1v48.4h6.1v14.3h-34.8v-14.3h6.2V86.2v-6.5H312.3z"/>
	<path class="st0" d="M345.3,109.5c0.1-18.4,15-28.6,30.1-28.6c17.4,0.2,30.3,10.7,30.6,29c0.2,18.3-13.3,28.7-30,28.7
		C360.3,138.7,345.1,129,345.3,109.5z M383.5,110c0-8.3-2.9-14.6-8-14.7c-4.3,0-7.6,6.4-7.6,14.4c0,9,3.5,15,8.1,15
		C380.7,124.6,383.5,118.2,383.5,110z"/>
	<path class="st0" d="M414.8,82.2V72.1l20.2-6.5v16.6h10.5v14.3h-10.5v19.6c0,3.7-0.8,8.8,3.5,8.8c1.4,0,4.8-1,6.9-1.9v14.1
		c-3.3,1.3-10.8,2.1-13.3,2.1c-16.5,0-17.1-9-17.4-23.1V96.5h-5.9V82.2H414.8z"/>
	<path class="st0" d="M448.4,109.5c0.1-18.4,15-28.6,30.1-28.6c17.4,0.2,30.3,10.7,30.6,29c0.2,18.3-13.3,28.7-30,28.7
		C463.3,138.7,448.2,129,448.4,109.5z M486.6,110c0-8.3-2.9-14.6-8-14.7c-4.3,0-7.6,6.4-7.6,14.4c0,9,3.5,15,8.1,15
		C483.8,124.6,486.6,118.2,486.6,110z"/>
	<path class="st0" d="M513.1,137.2v-14.4h4.8V96.5h-4.7V82.2h20.7l3.3,7c2.9-5.3,5.7-9.8,17.1-9.8v19.8c-9.9,0-15.5,2.5-15.5,12.2
		v11.3h5.5v14.4H513.1z"/>
	<path class="st0" d="M558.6,137.2v-14.4h4.6V96.5h-4.6V82.2h25.5v40.6h5.3v14.4H558.6z M573.6,54.9c7.6,0,12.1,6.2,12.1,11.2
		c0,6.1-4.3,11.1-12.1,11.1c-6.9,0-11.9-5.8-11.9-11.1C561.7,61.1,565.9,54.9,573.6,54.9z"/>
	<path class="st0" d="M593.8,117.4h14.7c0,5.8,8.4,7.4,11.7,7.4c2.2,0,4.8-0.7,4.8-3.7c0-3.3-8.3-3.9-16.2-6.6
		c-7.5-2.6-14.6-7.3-14.6-17.6c0-11.2,11.6-16,19.4-16c7.5,0,14.1,3.9,16.4,8.6l0.9-7.3h13.5V102h-14.3c0-4.6-5.7-8.4-11.2-8.4
		c-2.3,0-4.3,1.2-4.3,4c0,3.1,6.5,4.4,13.5,6.8c8.4,2.9,17.7,6.1,17.7,17.6c0,10.3-9.8,16.5-20.5,16.5c-7.9,0-14.2-3.9-16.8-8
		l-1,6.7h-13.8V117.4z"/>
	<path class="st0" d="M655.7,82.2V72.1l20.2-6.5v16.6h10.5v14.3h-10.5v19.6c0,3.7-0.8,8.8,3.5,8.8c1.4,0,4.8-1,6.9-1.9v14.1
		c-3.3,1.3-10.8,2.1-13.3,2.1c-16.5,0-17.1-9-17.4-23.1V96.5h-5.9V82.2H655.7z"/>
	<path class="st1" d="M9.9,110.6c2.1,7.3,8.6,22.8,12.5,29.4c3.9,6.5,58.3-0.3,79.4-19.8c21-19.5,51-43.1,62.9-81.6
		c0,0-45.8,52.8-84.4,61.8C41.7,109.5,9.9,110.6,9.9,110.6"/>
	<path class="st2" d="M86.1,4.7l-3-3.8l-3,3.8C79.9,5.1,54.2,36.8,5,38.6l-3.4,0.1l-0.3,3.4c-0.1,1.2-2.3,28.6,6.4,61.2
		c0.7,2.5,1.4,5,2.2,7.4c0.9,0.2,1.9,0.4,2.8,0.5c1.5,0.2,3,0.5,4.5,0.7c1.5,0.2,3.1,0.4,4.6,0.5c3.1,0.4,6.3,0.5,9.6,0.7
		c6.6,0.2,13.4,0,20.4-0.7c6.9-0.8,14-2,21-3.8c6.9-1.8,13.8-4.2,20.4-6.9c6.6-2.8,12.9-6.1,18.8-9.6c2.9-1.9,5.8-3.6,8.5-5.6
		c1.4-1,2.7-1.9,4-2.9c1.3-1,2.6-2,3.8-3c1.3-1,2.5-2,3.6-3c1.2-1,2.3-2,3.5-3c2.2-2.1,4.3-4.1,6.3-6.1c1-1,1.9-2,2.8-3
		c0.9-1,1.8-1.9,2.7-2.9c1.6-2,3.3-3.8,4.7-5.6c1.4-1.8,2.7-3.5,3.9-5.1c1.1-1.6,2.2-3.2,3.1-4.5c0.5-0.7,0.9-1.3,1.3-1.9
		c0.4-0.6,0.8-1.2,1.1-1.8c0.7-1.1,1.3-2,1.7-2.8c0.9-1.5,1.4-2.3,1.4-2.3l-3.4-0.1C112.1,36.8,86.4,5.1,86.1,4.7"/>
	<path class="st0" d="M165,42.1l-0.3-3.4c0,0-0.4,0.9-1.1,2.5c-0.3,0.8-0.8,1.8-1.3,3c-0.3,0.6-0.5,1.2-0.8,1.9
		c-0.3,0.7-0.7,1.4-1,2.1c-0.7,1.5-1.5,3.2-2.4,5c-1,1.8-2,3.7-3.2,5.8c-1.1,2.1-2.5,4.2-3.9,6.4c-0.7,1.1-1.4,2.3-2.2,3.4
		c-0.8,1.2-1.6,2.3-2.4,3.5c-1.7,2.4-3.6,4.8-5.5,7.3c-1,1.2-2.1,2.4-3.1,3.7c-1.1,1.3-2.1,2.5-3.3,3.7c-1.2,1.2-2.3,2.5-3.5,3.8
		c-1.2,1.2-2.5,2.4-3.8,3.7c-2.5,2.5-5.3,4.8-8.1,7.3c-5.8,4.7-12,9.3-18.7,13.5c-6.7,4.1-13.9,7.9-21.3,11.1
		c-7.5,3.2-15.2,5.8-23,8c-7.8,2.1-15.7,3.5-23.4,4.5c-3.5,0.3-6.9,0.7-10.2,0.9c13.8,24.6,33.8,43.1,59.2,54.2l1.5,0.7l1.5-0.7
		c36.8-16.1,62.3-47.5,73.9-91C167.2,70.6,165.1,43.2,165,42.1"/>
	<path class="st1" d="M22.6,140.3C22.6,140.3,22.6,140.3,22.6,140.3L22.6,140.3 M22.5,140.2C22.5,140.2,22.5,140.2,22.5,140.2
		C22.5,140.2,22.5,140.2,22.5,140.2"/>
	<path class="st3" d="M164.7,38.7c0,0-0.4,0.9-1.1,2.5c-0.3,0.8-0.8,1.8-1.3,3c-0.3,0.6-0.5,1.2-0.8,1.9c-0.3,0.7-0.7,1.4-1,2.1
		c-0.7,1.5-1.5,3.2-2.4,5c-1,1.8-2,3.7-3.2,5.8c-1.1,2.1-2.5,4.2-3.9,6.4c-0.7,1.1-1.4,2.3-2.2,3.4c-0.8,1.2-1.6,2.3-2.4,3.5
		c-1.7,2.4-3.6,4.8-5.5,7.3c-1,1.2-2.1,2.4-3.1,3.7c-1.1,1.3-2.1,2.5-3.3,3.7c-1.2,1.2-2.3,2.5-3.5,3.8c-1.2,1.2-2.5,2.4-3.8,3.7
		c-2.5,2.5-5.3,4.8-8.1,7.3c-5.8,4.7-12,9.3-18.7,13.5c-6.7,4.1-13.9,7.9-21.3,11.1c-7.5,3.2-15.2,5.8-23,8
		c-7.8,2.1-15.7,3.5-23.4,4.5c-3.5,0.3-6.9,0.7-10.2,0.9l0,0c3.4-0.2,6.8-0.6,10.2-0.9c7.7-1,15.6-2.4,23.4-4.5
		c7.8-2.1,15.5-4.8,23-8c7.4-3.3,14.6-7,21.3-11.1c6.7-4.2,12.9-8.8,18.7-13.5c2.8-2.5,5.6-4.8,8.1-7.3c1.3-1.3,2.6-2.4,3.8-3.7
		c1.2-1.3,2.4-2.5,3.5-3.8c1.2-1.2,2.2-2.5,3.3-3.7c1.1-1.2,2.1-2.5,3.1-3.7c1.9-2.5,3.8-4.9,5.5-7.3c0.8-1.2,1.6-2.4,2.4-3.5
		c0.8-1.1,1.6-2.3,2.2-3.4c1.4-2.3,2.8-4.4,3.9-6.4c1.1-2.1,2.2-4,3.2-5.8c0.9-1.8,1.7-3.5,2.4-5c0.4-0.8,0.7-1.5,1-2.1
		c0.3-0.7,0.6-1.3,0.8-1.9c0.5-1.2,0.9-2.2,1.3-3C164.3,39.6,164.7,38.7,164.7,38.7L164.7,38.7"/>
	<path class="st4" d="M164.7,38.7c0,0-0.4,0.9-1.1,2.5c-0.3,0.8-0.8,1.8-1.3,3c-0.3,0.6-0.5,1.2-0.8,1.9c-0.3,0.7-0.7,1.4-1,2.1
		c-0.7,1.5-1.5,3.2-2.4,5c-1,1.8-2,3.7-3.2,5.8c-1.1,2.1-2.5,4.2-3.9,6.4c-0.7,1.1-1.4,2.3-2.2,3.4c-0.8,1.2-1.6,2.3-2.4,3.5
		c-1.7,2.4-3.6,4.8-5.5,7.3c-1,1.2-2.1,2.4-3.1,3.7c-1.1,1.3-2.1,2.5-3.3,3.7c-1.2,1.2-2.3,2.5-3.5,3.8c-1.2,1.2-2.5,2.4-3.8,3.7
		c-2.5,2.5-5.3,4.8-8.1,7.3c-5.8,4.7-12,9.3-18.7,13.5c-6.7,4.1-13.9,7.9-21.3,11.1c-7.5,3.2-15.2,5.8-23,8
		c-7.8,2.1-15.7,3.5-23.4,4.5c-3.5,0.3-6.9,0.7-10.2,0.9c0,0,0.1,0.1,0.1,0.1c0,0,0,0,0,0c0,0,0.1,0.1,0.1,0.1l0,0
		c7.2,12.7,16,23.7,26.4,33c6.8-2.5,13.7-5.3,20.4-8.6c7.9-4,15.5-8.5,22.8-13.5c7.2-5.1,14.1-10.7,20.4-16.5
		c6.3-5.9,11.9-12.2,17.1-18.5c2.4-3.3,5-6.3,7.1-9.6c1.1-1.6,2.2-3.2,3.2-4.8c1-1.6,2-3.2,2.9-4.8c1-1.5,1.9-3.1,2.7-4.7
		c0.9-1.6,1.7-3.1,2.5-4.6c1.5-3.1,3-6.1,4.3-9c0.6-1.5,1.2-2.9,1.8-4.3c0.6-1.4,1.2-2.8,1.7-4.1c1-2.7,2-5.3,2.8-7.7
		c0.8-2.4,1.5-4.7,2.1-6.9c0.5-2.1,1.1-4.1,1.5-5.9c0.2-0.9,0.4-1.7,0.6-2.5c0.2-0.8,0.3-1.5,0.5-2.2c0.3-1.4,0.5-2.6,0.7-3.5
		C164.5,39.7,164.7,38.7,164.7,38.7"/>
	<path class="st3" d="M7.7,103.1C7.7,103.1,7.7,103.1,7.7,103.1C7.7,103.1,7.7,103.1,7.7,103.1 M7.7,103C7.7,103,7.7,103,7.7,103
		C7.7,103,7.7,103,7.7,103 M7.6,102.9C7.6,102.9,7.6,102.9,7.6,102.9C7.6,102.9,7.6,102.9,7.6,102.9"/>
	<path class="st5" d="M164.7,38.7c0,0-0.9,0.6-2.7,1.7c-0.9,0.5-1.9,1.2-3.2,2c-0.6,0.4-1.3,0.8-2,1.3c-0.7,0.4-1.5,0.9-2.4,1.3
		c-1.7,0.9-3.5,2-5.5,3.1c-2,1-4.3,2.1-6.6,3.3c-2.4,1.2-5,2.2-7.7,3.4c-1.3,0.6-2.8,1.2-4.2,1.7c-1.4,0.5-2.9,1.1-4.4,1.7
		c-3,1.1-6.3,2.1-9.5,3.1c-1.7,0.5-3.4,0.9-5.1,1.4c-1.7,0.5-3.5,0.9-5.3,1.3c-1.8,0.4-3.6,0.8-5.4,1.2c-1.8,0.4-3.7,0.6-5.6,1
		c-3.8,0.7-7.7,1-11.6,1.5c-5.2,0.4-10.5,0.7-15.9,0.7c-2.8,0-5.5-0.1-8.3-0.2c-8.2-0.5-16.4-1.5-24.5-3.1c-8.1-1.7-16-3.9-23.5-6.6
		c-3.5-1.3-7-2.7-10.3-4.2c0.2,11.2,1.4,28.9,6.6,48.5c0,0,0,0,0,0c0,0,0,0.1,0,0.1c0,0,0,0,0,0c0,0,0,0.1,0,0.1c0,0,0,0,0,0
		c0,0,0,0.1,0,0.1c0.7,2.5,1.4,5,2.2,7.4c0.9,0.2,1.9,0.4,2.8,0.5c1.5,0.2,3,0.5,4.5,0.7c1.5,0.2,3.1,0.4,4.6,0.5
		c3.1,0.4,6.3,0.5,9.6,0.7c1.6,0,3.3,0.1,4.9,0.1c5,0,10.2-0.2,15.5-0.8c6.9-0.8,14-2,21-3.8c6.9-1.8,13.8-4.2,20.4-6.9
		c6.6-2.8,12.9-6.1,18.8-9.6c2.9-1.9,5.8-3.6,8.5-5.6c1.4-1,2.7-1.9,4-2.9c1.3-1,2.6-2,3.8-3c1.3-1,2.5-2,3.6-3c1.2-1,2.3-2,3.5-3
		c2.2-2.1,4.3-4.1,6.3-6.1c1-1,1.9-2,2.8-3c0.9-1,1.8-1.9,2.7-2.9c1.6-2,3.3-3.8,4.7-5.6c1.4-1.8,2.7-3.5,3.9-5.1
		c1.1-1.6,2.2-3.2,3.1-4.5c0.5-0.7,0.9-1.3,1.3-1.9c0.4-0.6,0.8-1.2,1.1-1.8c0.7-1.1,1.3-2,1.7-2.8
		C164.2,39.5,164.7,38.7,164.7,38.7"/>
</g>
</svg>
